<svg xmlns="http://www.w3.org/2000/svg" fill="none" viewBox="0 0 37 13">
  <path d="M7.984 10.016H3.792L3.12 12H.256L4.32.768h3.168L11.552 12H8.656l-.672-1.984zM7.28 7.904L5.888 3.792 4.512 7.904H7.28zM15.477.768v6.72c0 .672.165 1.19.496 1.552.33.363.816.544 1.456.544s1.13-.181 1.472-.544c.341-.363.512-.88.512-1.552V.768h2.736v6.704c0 1.003-.213 1.85-.64 2.544a4.088 4.088 0 01-1.728 1.568c-.715.352-1.515.528-2.4.528-.886 0-1.68-.17-2.384-.512a3.952 3.952 0 01-1.648-1.568c-.405-.704-.608-1.557-.608-2.56V.768h2.736zm21.313 0V12h-2.736V5.264L31.542 12h-2.208l-2.528-6.752V12H24.07V.768h3.232l3.152 7.776 3.12-7.776h3.216z" fill="#fff"/>
</svg>
